#!OML:ASF H:\GeneralSubjects\Female5\Project 1\Capture day 1\Session 1\Female5.ASF
:FULLY-SPECIFIED
:DEGREES
177
root 3.35768 16.7748 2.22363 -169.927 -25.5735 -177.783
lowerback 3.83726 3.74602 1.23094
upperback -15.2464 3.34412 -2.31288
thorax -19.4155 0.39112 -3.81012
lowerneck -14.0377 9.01265 11.241
upperneck 33.6929 11.8828 -10.2452
head 15.6214 4.36366 -4.36972
rclavicle -8.44835e-014 -1.59028e-015
rhumerus -21.8828 0.0237247 20.2726
rradius 31.1779
rwrist -27.3279
rhand -64.1727 -44.7146
rfingers 7.12502
rthumb -36.1145 -71.0029
lclavicle -8.44835e-014 -1.59028e-015
lhumerus -16.9443 16.5846 -9.50668
lradius 32.9488
lwrist 7.52517
lhand -54.4664 67.8187
lfingers 7.12502
lthumb -26.8697 -95.9292
rfemur 6.92391 35.5275 28.9444
rtibia -8.88508
rfoot -40.0203 -33.0363
rtoes 13.0325
lfemur 7.67918 -40.0693 -25.5333
ltibia -3.12321
lfoot -56.6592 0.297481
ltoes -11.6406
178
root 3.35866 16.7735 2.23428 -169.854 -25.6129 -177.827
lowerback 3.83815 3.76447 1.21271
upperback -15.2711 3.36091 -2.32245
thorax -19.4497 0.396887 -3.81527
lowerneck -14.3492 9.00911 11.1978
upperneck 33.9452 11.8754 -10.2451
head 15.8153 4.3352 -4.37096
rclavicle 5.1684e-014 2.62396e-014
rhumerus -22.6897 0.746161 19.8432
rradius 30.9411
rwrist -28.4305
rhand -63.1896 -45.7838
rfingers 7.12502
rthumb -35.1828 -72.297
lclavicle 5.1684e-014 2.62396e-014
lhumerus -17.4095 15.9702 -9.18671
lradius 32.6713
lwrist 8.61655
lhand -54.1857 68.2838
lfingers 7.12502
lthumb -26.601 -96.4354
rfemur 6.79668 35.5437 28.8629
rtibia -8.7963
rfoot -40.0134 -32.9703
rtoes 13.2022
lfemur 7.57141 -40.0392 -25.5241
ltibia -3.14084
lfoot -56.6799 1.00962
ltoes -12.8338
179
root 3.36108 16.773 2.24479 -169.802 -25.6727 -177.805
lowerback 3.81271 3.77827 1.25429
upperback -15.3008 3.37932 -2.32298
thorax -19.4684 0.395376 -3.84147
lowerneck -14.2344 8.84837 10.8375
upperneck 33.8316 11.6419 -9.94784
head 15.6346 4.24098 -4.21861
rclavicle -2.8625e-014 -4.53229e-014
rhumerus -23.5037 1.38173 19.4067
rradius 30.7899
rwrist -29.4602
rhand -63.4685 -45.7778
rfingers 7.12502
rthumb -35.4472 -72.2282
lclavicle -2.8625e-014 -4.53229e-014
lhumerus -17.9354 14.9367 -8.94841
lradius 32.4515
lwrist 9.99916
lhand -53.3486 65.823
lfingers 7.12502
lthumb -25.7996 -94.0936
rfemur 6.68706 35.5506 28.8669
rtibia -8.75276
rfoot -39.7023 -33.3952
rtoes 12.2586
lfemur 7.45202 -40.0494 -25.4237
ltibia -3.18094
lfoot -56.5768 1.76401
ltoes -13.4825
180
root 3.36282 16.7723 2.25448 -169.819 -25.7317 -177.732
lowerback 3.78303 3.7656 1.34024
upperback -15.3071 3.37943 -2.27852
thorax -19.4529 0.38792 -3.83517
lowerneck -14.2874 8.87596 10.9315
upperneck 33.9306 11.6789 -10.0263
head 15.7176 4.25077 -4.2673
rclavicle -6.10269e-014 -2.38542e-015
rhumerus -24.2324 2.19698 18.8731
rradius 30.804
rwrist -30.691
rhand -63.2152 -42.895
rfingers 7.12502
rthumb -35.2071 -69.4024
lclavicle -6.10269e-014 -2.38542e-015
lhumerus -18.5368 14.4794 -8.73143
lradius 32.2313
lwrist 10.9395
lhand -54.2302 71.0676
lfingers 7.12502
lthumb -26.6437 -99.2126
rfemur 6.67412 35.5536 28.9407
rtibia -8.79253
rfoot -39.3296 -33.952
rtoes 10.7672
lfemur 7.43978 -40.3295 -25.3452
ltibia -3.21875
lfoot -56.7905 1.63102
ltoes -13.1275
181
root 3.36171 16.7716 2.26293 -169.828 -25.7839 -177.597
lowerback 3.66489 3.7723 1.52766
upperback -15.3088 3.41401 -2.26196
thorax -19.3572 0.38028 -3.91776
lowerneck -14.1879 8.83444 10.7707
upperneck 33.9136 11.5864 -9.78727
head 15.6349 4.22797 -4.15295
rclavicle 3.89618e-014 3.49861e-014
rhumerus -24.9162 3.07996 18.2407
rradius 30.7523
rwrist -31.9522
rhand -62.9084 -41.4748
rfingers 7.12502
rthumb -34.916 -68.0504
lclavicle 3.89618e-014 3.49861e-014
lhumerus -19.0528 14.5058 -8.48677
lradius 32.0301
lwrist 11.6675
lhand -54.563 71.4338
lfingers 7.12502
lthumb -26.9621 -99.5301
rfemur 6.62256 35.5774 29.054
rtibia -8.80768
rfoot -39.3398 -34.0901
rtoes 10.0204
lfemur 7.51585 -40.9629 -25.3144
ltibia -3.24534
lfoot -57.297 0.581801
ltoes -11.3565
182
root 3.36173 16.7704 2.27362 -169.739 -25.8604 -177.535
lowerback 3.55166 3.78938 1.63519
upperback -15.3376 3.43764 -2.29138
thorax -19.3061 0.369556 -4.0087
lowerneck -14.0752 8.74874 10.7853
upperneck 33.8522 11.4586 -9.7969
head 15.5608 4.18098 -4.18438
rclavicle 3.89618e-014 4.77083e-015
rhumerus -25.5901 4.18426 17.5629
rradius 30.5807
rwrist -33.3878
rhand -62.6875 -42.6702
rfingers 7.12502
rthumb -34.7065 -69.2943
lclavicle 3.89618e-014 4.77083e-015
lhumerus -19.5729 14.1012 -8.16496
lradius 32.0022
lwrist 13.0609
lhand -55.0411 71.3999
lfingers 7.12502
lthumb -27.4195 -99.4246
rfemur 6.41555 35.5748 29.0083
rtibia -8.76055
rfoot -39.375 -34.0811
rtoes 10.1179
lfemur 7.41354 -41.3833 -25.2185
ltibia -3.27188
lfoot -57.54 0.0499336
ltoes -10.0961
183
root 3.36231 16.7675 2.28633 -169.604 -25.947 -177.537
lowerback 3.50025 3.80228 1.66459
upperback -15.4127 3.43901 -2.29938
thorax -19.3712 0.353892 -4.0327
lowerneck -14.0512 8.69802 10.7506
upperneck 33.9564 11.3947 -9.82241
head 15.596 4.13823 -4.21018
rclavicle 1.35174e-014 -1.59028e-015
rhumerus -26.2428 5.02062 16.9679
rradius 30.3835
rwrist -34.517
rhand -62.6143 -42.7542
rfingers 7.12502
rthumb -34.6369 -69.3942
lclavicle 1.35174e-014 -1.59028e-015
lhumerus -20.1478 13.539 -7.73381
lradius 32.011
lwrist 14.451
lhand -55.4494 72.2763
lfingers 7.12502
lthumb -27.81 -100.239
rfemur 6.15936 35.5521 28.8551
rtibia -8.72173
rfoot -39.2688 -34.1292
rtoes 10.5261
lfemur 7.1669 -41.5712 -25.067
ltibia -3.27043
lfoot -57.6186 0.0164885
ltoes -9.9168
184
root 3.35952 16.7634 2.29589 -169.491 -26.0077 -177.58
lowerback 3.45747 3.82145 1.66336
upperback -15.494 3.44516 -2.2952
thorax -19.4537 0.345111 -4.02715
lowerneck -13.9344 8.68523 10.6916
upperneck 34.0248 11.3812 -9.79079
head 15.5922 4.12453 -4.19693
rclavicle 2.04748e-014 -1.59028e-015
rhumerus -26.981 5.74207 16.3786
rradius 30.3633
rwrist -35.5638
rhand -62.5411 -42.8927
rfingers 7.12502
rthumb -34.5675 -69.5487
lclavicle 2.04748e-014 -1.59028e-015
lhumerus -20.6943 13.7381 -7.34138
lradius 31.8831
lwrist 14.687
lhand -55.3218 73.0681
lfingers 7.12502
lthumb -27.6879 -101.05
rfemur 6.04721 35.5381 28.7153
rtibia -8.77043
rfoot -39.4758 -33.9127
rtoes 11.235
lfemur 7.03746 -41.7954 -25.0577
ltibia -3.27267
lfoot -57.8503 0.0664289
ltoes -10.4873
185
root 3.35667 16.761 2.3031 -169.417 -26.0744 -177.626
lowerback 3.44806 3.81734 1.62969
upperback -15.5282 3.42744 -2.28879
thorax -19.4988 0.337499 -3.9979
lowerneck -14.1678 8.82373 11.0619
upperneck 34.2665 11.5501 -10.0094
head 15.8467 4.19787 -4.33353
rclavicle 4.57205e-015 1.59028e-014
rhumerus -27.8155 6.53799 15.7387
rradius 30.5046
rwrist -36.8013
rhand -62.2216 -45.1417
rfingers 7.12502
rthumb -34.2641 -71.8664
lclavicle 4.57205e-015 1.59028e-014
lhumerus -21.3397 14.0754 -7.13772
lradius 31.8577
lwrist 14.659
lhand -55.0691 73.3561
lfingers 7.12502
lthumb -27.4462 -101.377
rfemur 6.02228 35.5087 28.6041
rtibia -8.86014
rfoot -39.7925 -33.6343
rtoes 11.8215
lfemur 6.90849 -41.7563 -25.0377
ltibia -3.26553
lfoot -57.7645 0.164466
ltoes -10.8455
